<svg xmlns="http://www.w3.org/2000/svg" version="1.1" xmlns:xlink="http://www.w3.org/1999/xlink" xmlns:svgjs="http://svgjs.dev/svgjs" id="BgenPttrnSvgRootPreview" width="100%" height="100%"><defs><pattern x="0" y="0" width="1" height="1" patternUnits="userSpaceOnUse" id="BgenPttrnLayer1"><g id="PatternRootContent1"><g id="BgenPttrnLayer1background"><rect width="1" height="1" id="BgenPttrnBackground1" class="color_1 fill_color_1" fill="#18402b"></rect></g></g></pattern><pattern x="0" y="0" width="48" height="84" patternUnits="userSpaceOnUse" id="BgenPttrnLayer2" patternTransform="matrix(0.7071067811865476,0.7071067811865475,-0.7071067811865475,0.7071067811865476,0,0)"><g id="PatternRootContent2"><g id="BgenPttrnLayer2Element2"><use xlink:href="#BgenPttrnElement2" x="9.287189483642578" y="-54.526283264160156" transform="translate(48, -21) scale(1) translate(-48, 21) rotate(90, 48, -21)"></use><use xlink:href="#BgenPttrnElement2" x="-38.71281051635742" y="-54.526283264160156" transform="translate(0, -21) scale(1) translate(0, 21) rotate(90, 0, -21)"></use><use xlink:href="#BgenPttrnElement2" x="-14.712810516357422" y="-12.526283264160156" transform="translate(24, 21) scale(1) translate(-24, -21) rotate(90, 24, 21)"></use><use xlink:href="#BgenPttrnElement2" x="-62.71281051635742" y="-12.526283264160156" transform="translate(-24, 21) scale(1) translate(24, -21) rotate(90, -24, 21)"></use><use xlink:href="#BgenPttrnElement2" x="33.28718948364258" y="-12.526283264160156" transform="translate(72, 21) scale(1) translate(-72, -21) rotate(90, 72, 21)"></use><use xlink:href="#BgenPttrnElement2" x="9.287189483642578" y="29.473716735839844" transform="translate(48, 63) scale(1) translate(-48, -63) rotate(90, 48, 63)"></use><use xlink:href="#BgenPttrnElement2" x="-38.71281051635742" y="29.473716735839844" transform="translate(0, 63) scale(1) translate(0, -63) rotate(90, 0, 63)"></use><use xlink:href="#BgenPttrnElement2" x="-14.712810516357422" y="71.47371673583984" transform="translate(24, 105) scale(1) translate(-24, -105) rotate(90, 24, 105)"></use><use xlink:href="#BgenPttrnElement2" x="-14.712810516357422" y="71.47371673583984" transform="translate(24, 105) scale(1) translate(-24, -105) rotate(90, 24, 105)"></use></g></g></pattern><symbol id="BgenPttrnElement2"><g class="color_3 fill_color_3" fill="#786938"><path d="M50.713,20.00012969970703l-6,0l8,8l8,-8l-6,0C54.713,11.16,47.553,4,38.713,4.000129699707031c-3.14,0,-6.05,0.92,-8.52,2.48l2.92,2.92c1.67,-0.89,3.57,-1.4,5.6,-1.4c6.63,0,12,5.37,12,12Zm-3.48,13.52L44.313,30.600128173828125c-1.67,0.89,-3.57,1.4,-5.6,1.4c-6.63,0,-12,-5.37,-12,-12l6,0l-8,-8l-8,8l6,0c0,8.84,7.16,16,16,16c3.14,0,6.05,-0.92,8.52,-2.48Z" transform="matrix(1,0,0,1,0,0)"></path><path d="M46.569,54.392433166503906l3,-5.196l-10.928,2.928l2.928,10.928l3,-5.196C52.225,62.277,62.006,59.656,66.426,52.000125885009766c1.57,-2.719,2.228,-5.699,2.112,-8.619l-3.989,1.069c-0.064,1.891,-0.573,3.792,-1.588,5.55c-3.315,5.742,-10.651,7.707,-16.392,4.392Zm-9.968,-9.774L40.589,43.549869537353516c0.065,-1.891,0.573,-3.792,1.588,-5.55c3.315,-5.742,10.651,-7.707,16.392,-4.392l-3,5.196l10.928,-2.928l-2.928,-10.928l-3,5.196c-7.656,-4.42,-17.436,-1.799,-21.856,5.856c-1.57,2.719,-2.228,5.699,-2.112,8.619Z" transform="matrix(1,0,0,1,0,0)"></path><path d="M18.856,33.607826232910156l3,5.196l2.928,-10.928l-10.928,-2.928l3,5.196C9.201,34.564,6.58,44.345,11,52.00012969970703c1.57,2.719,3.822,4.779,6.408,6.139l1.069,-3.989c-1.606,-1.001,-2.997,-2.392,-4.012,-4.15c-3.315,-5.742,-1.349,-13.077,4.392,-16.392Zm13.449,-3.746L31.236,33.85038757324219c1.606,1.001,2.998,2.392,4.013,4.15c3.315,5.742,1.349,13.077,-4.392,16.392l-3,-5.196l-2.928,10.928l10.928,2.928l-3,-5.196c7.656,-4.42,10.276,-14.201,5.856,-21.856c-1.57,-2.719,-3.822,-4.779,-6.408,-6.139Z" transform="matrix(1,0,0,1,0,0)"></path></g></symbol></defs><rect width="100%" height="100%" id="BgenPttrnRctLayer1" fill="url(&quot;#BgenPttrnLayer1&quot;)"></rect><rect width="100%" height="100%" id="BgenPttrnRctLayer2" fill="url(&quot;#BgenPttrnLayer2&quot;)"></rect></svg>